<?xml version="1.0" encoding="UTF-8"?>
<svg xmlns="http://www.w3.org/2000/svg" xmlns:xlink="http://www.w3.org/1999/xlink" width="40px" height="40px" viewBox="0 0 40 40" version="1.1">
<g id="surface1">
<path style=" stroke:none;fill-rule:nonzero;fill:rgb(100%,88.627452%,25.098041%);fill-opacity:1;" d="M 16.726562 13.011719 C 17.105469 13.488281 17.492188 13.914062 17.882812 14.347656 C 18.296875 14.808594 18.707031 15.28125 19.117188 15.761719 C 19.171875 15.824219 19.222656 15.886719 19.28125 15.953125 C 19.660156 16.398438 19.660156 16.398438 19.839844 16.640625 C 20.128906 16.71875 20.308594 16.507812 20.546875 16.207031 C 20.625 16.109375 20.707031 16.007812 20.789062 15.910156 C 20.832031 15.855469 20.875 15.800781 20.921875 15.746094 C 21.183594 15.429688 21.449219 15.125 21.714844 14.820312 C 22.292969 14.152344 22.871094 13.476562 23.445312 12.796875 C 23.625 12.585938 23.808594 12.371094 23.988281 12.160156 C 24.023438 12.121094 24.054688 12.085938 24.085938 12.046875 C 24.949219 11.039062 25.824219 10.160156 26.851562 10.566406 C 27.796875 11.125 28.371094 12.671875 28.9375 14.1875 C 28.984375 14.3125 29.03125 14.4375 29.082031 14.566406 C 29.957031 16.890625 30.652344 19.445312 31.21875 22.125 C 31.242188 22.234375 31.265625 22.339844 31.289062 22.453125 C 31.308594 22.550781 31.332031 22.652344 31.351562 22.753906 C 31.367188 22.839844 31.386719 22.925781 31.40625 23.015625 C 31.441406 23.28125 31.429688 23.425781 31.382812 23.679688 C 29.867188 24.246094 28.351562 24.796875 26.835938 25.339844 C 26.574219 25.433594 26.316406 25.523438 26.058594 25.617188 C 25.8125 25.707031 25.566406 25.796875 25.316406 25.882812 C 25.226562 25.917969 25.132812 25.949219 25.042969 25.984375 C 24.914062 26.03125 24.785156 26.074219 24.660156 26.121094 C 24.621094 26.132812 24.585938 26.148438 24.546875 26.164062 C 24.347656 26.230469 24.183594 26.261719 23.988281 26.132812 C 23.894531 25.890625 23.894531 25.890625 23.804688 25.566406 C 23.773438 25.445312 23.738281 25.328125 23.703125 25.203125 C 23.667969 25.070312 23.632812 24.9375 23.597656 24.808594 C 23.558594 24.671875 23.523438 24.539062 23.484375 24.402344 C 23.40625 24.125 23.332031 23.847656 23.253906 23.566406 C 23.074219 22.910156 22.886719 22.257812 22.699219 21.605469 C 22.667969 21.492188 22.632812 21.375 22.601562 21.253906 C 22.570312 21.148438 22.539062 21.039062 22.503906 20.925781 C 22.480469 20.832031 22.453125 20.738281 22.425781 20.640625 C 22.273438 20.15625 22.140625 19.773438 21.863281 19.566406 C 21.574219 19.441406 21.308594 19.542969 21.042969 19.808594 C 20.820312 20.203125 20.679688 20.550781 20.652344 21.160156 C 20.679688 22.433594 21.183594 23.722656 21.519531 24.753906 C 21.542969 24.828125 21.570312 24.90625 21.59375 24.984375 C 21.628906 25.085938 21.628906 25.085938 21.660156 25.1875 C 21.703125 25.386719 21.703125 25.386719 21.695312 25.609375 C 21.636719 25.863281 21.589844 25.925781 21.46875 26.0625 C 21.429688 26.105469 21.394531 26.148438 21.355469 26.191406 C 21.316406 26.238281 21.273438 26.28125 21.234375 26.328125 C 21.152344 26.421875 21.066406 26.515625 20.984375 26.609375 C 20.945312 26.652344 20.902344 26.699219 20.863281 26.746094 C 20.757812 26.867188 20.65625 26.988281 20.554688 27.121094 C 20.5 27.1875 20.445312 27.257812 20.390625 27.328125 C 20.339844 27.386719 20.292969 27.449219 20.246094 27.511719 C 20.066406 27.660156 19.976562 27.609375 19.789062 27.519531 C 19.625 27.363281 19.625 27.363281 19.457031 27.167969 C 19.425781 27.132812 19.398438 27.097656 19.367188 27.0625 C 19.304688 26.988281 19.242188 26.914062 19.179688 26.839844 C 19.082031 26.726562 18.984375 26.613281 18.890625 26.503906 C 18.421875 25.953125 18.421875 25.953125 18.296875 25.707031 C 18.316406 25.3125 18.378906 25.035156 18.484375 24.703125 C 18.511719 24.617188 18.539062 24.527344 18.566406 24.4375 C 18.609375 24.300781 18.609375 24.300781 18.652344 24.160156 C 19.179688 22.59375 19.179688 22.59375 19.308594 20.800781 C 19.195312 20.183594 19.03125 19.875 18.738281 19.59375 C 18.4375 19.46875 18.195312 19.507812 17.925781 19.796875 C 17.742188 20.09375 17.640625 20.40625 17.53125 20.8125 C 17.484375 20.976562 17.4375 21.136719 17.394531 21.300781 C 17.367188 21.390625 17.34375 21.480469 17.316406 21.570312 C 17.121094 22.261719 16.921875 22.949219 16.722656 23.636719 C 16.578125 24.136719 16.4375 24.636719 16.300781 25.144531 C 16.28125 25.214844 16.261719 25.289062 16.242188 25.359375 C 16.195312 25.535156 16.148438 25.714844 16.101562 25.894531 C 16.011719 26.132812 16.011719 26.132812 15.890625 26.207031 C 15.730469 26.242188 15.609375 26.214844 15.453125 26.160156 C 15.394531 26.140625 15.335938 26.121094 15.273438 26.097656 C 15.210938 26.074219 15.148438 26.050781 15.082031 26.027344 C 14.980469 25.992188 14.980469 25.992188 14.878906 25.957031 C 14.695312 25.890625 14.511719 25.824219 14.328125 25.757812 C 14.136719 25.691406 13.945312 25.621094 13.75 25.554688 C 13.429688 25.4375 13.105469 25.320312 12.78125 25.207031 C 12.328125 25.042969 11.871094 24.878906 11.414062 24.71875 C 11.0625 24.589844 10.707031 24.464844 10.355469 24.335938 C 10.316406 24.324219 10.277344 24.308594 10.238281 24.296875 C 9.988281 24.207031 9.734375 24.117188 9.484375 24.027344 C 9.421875 24.003906 9.359375 23.980469 9.292969 23.957031 C 9.234375 23.9375 9.175781 23.914062 9.117188 23.894531 C 9.066406 23.875 9.015625 23.855469 8.964844 23.839844 C 8.847656 23.792969 8.730469 23.742188 8.617188 23.679688 C 8.558594 23.335938 8.566406 23.152344 8.636719 22.816406 C 8.660156 22.691406 8.660156 22.691406 8.6875 22.5625 C 8.703125 22.46875 8.722656 22.378906 8.742188 22.285156 C 8.761719 22.191406 8.78125 22.097656 8.804688 22 C 8.863281 21.703125 8.925781 21.414062 8.988281 21.121094 C 9.007812 21.035156 9.023438 20.953125 9.042969 20.867188 C 9.648438 18.070312 10.496094 15.429688 11.488281 13.121094 C 11.527344 13.027344 11.566406 12.9375 11.609375 12.84375 C 12.125 11.660156 12.636719 10.683594 13.441406 10.46875 C 14.675781 10.351562 15.726562 11.730469 16.726562 13.011719 Z M 14.46875 14.292969 C 14.371094 14.488281 14.398438 14.769531 14.394531 15.035156 C 14.398438 15.953125 14.546875 16.59375 14.855469 17.265625 C 15.21875 17.9375 15.621094 18.179688 16.105469 18.171875 C 16.472656 18.089844 16.8125 17.683594 17.074219 17.171875 C 17.234375 16.785156 17.234375 16.785156 17.289062 16.320312 C 17.015625 16.117188 16.742188 15.914062 16.46875 15.710938 C 16.375 15.644531 16.28125 15.574219 16.191406 15.503906 C 15.617188 15.082031 15.046875 14.667969 14.46875 14.292969 Z M 25.480469 14.292969 C 25.101562 14.566406 24.726562 14.835938 24.347656 15.109375 C 24.21875 15.199219 24.089844 15.292969 23.964844 15.386719 C 23.78125 15.515625 23.59375 15.648438 23.410156 15.78125 C 23.355469 15.824219 23.296875 15.867188 23.238281 15.910156 C 23.183594 15.945312 23.128906 15.984375 23.074219 16.023438 C 23.027344 16.058594 22.980469 16.09375 22.933594 16.128906 C 22.820312 16.210938 22.820312 16.210938 22.710938 16.320312 C 22.84375 17.136719 23.085938 17.53125 23.449219 17.921875 C 23.828125 18.261719 24.257812 18.242188 24.644531 17.953125 C 25.101562 17.539062 25.339844 16.917969 25.546875 16.019531 C 25.601562 15.519531 25.613281 15.015625 25.585938 14.507812 C 25.550781 14.4375 25.515625 14.367188 25.480469 14.292969 Z M 25.480469 14.292969 "/>
<path style=" stroke:none;fill-rule:nonzero;fill:rgb(100%,88.627452%,25.098041%);fill-opacity:1;" d="M 27.925781 0 C 27.96875 2.132812 27.871094 4.382812 27.5 6.398438 C 27.445312 6.507812 27.445312 6.507812 27.324219 6.539062 C 27.136719 6.496094 27.089844 6.378906 26.957031 6.113281 C 26.152344 4.59375 25.191406 3.539062 24.203125 2.558594 C 24.203125 2.382812 24.203125 2.207031 24.203125 2.027344 C 25.304688 0.894531 26.671875 -0.0625 27.925781 0 Z M 27.925781 0 "/>
<path style=" stroke:none;fill-rule:nonzero;fill:rgb(100%,88.627452%,25.098041%);fill-opacity:1;" d="M 12.019531 0 C 13.328125 0.0859375 14.636719 0.828125 15.796875 2.027344 C 15.796875 2.203125 15.796875 2.378906 15.796875 2.558594 C 15.765625 2.59375 15.730469 2.625 15.699219 2.660156 C 14.777344 3.59375 13.890625 4.5625 13.128906 5.980469 C 13.089844 6.046875 13.054688 6.117188 13.015625 6.1875 C 12.984375 6.25 12.953125 6.308594 12.917969 6.375 C 12.792969 6.542969 12.703125 6.53125 12.554688 6.507812 C 12.394531 5.855469 12.324219 5.195312 12.253906 4.488281 C 12.242188 4.375 12.230469 4.261719 12.21875 4.148438 C 12.117188 3.136719 12.066406 2.152344 12.042969 1.121094 C 12.042969 1.011719 12.039062 0.902344 12.039062 0.792969 C 12.03125 0.527344 12.027344 0.265625 12.019531 0 Z M 12.019531 0 "/>
<path style=" stroke:none;fill-rule:nonzero;fill:rgb(100%,88.627452%,25.098041%);fill-opacity:1;" d="M 22.554688 33.8125 C 23.003906 33.804688 23.003906 33.804688 23.464844 33.792969 C 23.558594 33.789062 23.652344 33.789062 23.75 33.785156 C 23.824219 33.785156 23.902344 33.78125 23.976562 33.78125 C 24.015625 33.78125 24.054688 33.777344 24.09375 33.777344 C 24.347656 33.777344 24.519531 33.863281 24.734375 34.132812 C 24.980469 34.683594 25.015625 35.019531 25.015625 35.742188 C 24.992188 36.207031 24.90625 36.511719 24.789062 36.90625 C 24.820312 36.988281 24.855469 37.070312 24.890625 37.152344 C 25.078125 37.644531 25.089844 38.121094 25.054688 38.71875 C 24.96875 39.25 24.820312 39.539062 24.574219 39.808594 C 24.390625 39.957031 24.210938 39.945312 24.011719 39.933594 C 23.957031 39.933594 23.957031 39.933594 23.898438 39.933594 C 23.761719 39.929688 23.625 39.925781 23.488281 39.921875 C 23.179688 39.910156 22.871094 39.902344 22.554688 39.894531 C 22.554688 37.886719 22.554688 35.878906 22.554688 33.8125 Z M 23.402344 35.308594 C 23.402344 35.589844 23.402344 35.871094 23.402344 36.160156 C 23.488281 36.164062 23.574219 36.167969 23.65625 36.171875 C 23.703125 36.175781 23.75 36.179688 23.800781 36.179688 C 23.941406 36.160156 24.027344 36.09375 24.148438 35.945312 C 24.128906 35.59375 24.128906 35.59375 24.042969 35.308594 C 23.933594 35.300781 23.828125 35.296875 23.71875 35.300781 C 23.660156 35.300781 23.601562 35.300781 23.542969 35.304688 C 23.496094 35.304688 23.449219 35.304688 23.402344 35.308594 Z M 23.402344 37.546875 C 23.402344 37.828125 23.402344 38.109375 23.402344 38.398438 C 23.515625 38.40625 23.628906 38.410156 23.742188 38.414062 C 23.835938 38.417969 23.835938 38.417969 23.933594 38.421875 C 24.101562 38.433594 24.101562 38.433594 24.203125 38.1875 C 24.195312 37.96875 24.195312 37.96875 24.148438 37.761719 C 23.96875 37.515625 23.898438 37.523438 23.6875 37.535156 C 23.632812 37.535156 23.582031 37.539062 23.527344 37.539062 C 23.484375 37.542969 23.445312 37.542969 23.402344 37.546875 Z M 23.402344 37.546875 "/>
<path style=" stroke:none;fill-rule:nonzero;fill:rgb(100%,88.627452%,25.098041%);fill-opacity:1;" d="M 15.636719 33.8125 C 15.917969 33.804688 16.199219 33.796875 16.488281 33.785156 C 16.621094 33.78125 16.621094 33.78125 16.753906 33.773438 C 17.15625 33.765625 17.480469 33.769531 17.820312 34.238281 C 18.074219 34.765625 18.152344 35.265625 18.15625 35.992188 C 18.148438 36.632812 18.121094 37.046875 17.890625 37.511719 C 17.632812 37.972656 17.632812 37.972656 17.5 37.972656 C 17.566406 38.136719 17.628906 38.300781 17.695312 38.464844 C 17.734375 38.5625 17.773438 38.660156 17.8125 38.761719 C 17.902344 38.980469 17.992188 39.199219 18.085938 39.414062 C 18.191406 39.679688 18.191406 39.679688 18.191406 39.894531 C 17.304688 40.054688 17.304688 40.054688 17.015625 39.675781 C 16.894531 39.402344 16.796875 39.132812 16.703125 38.828125 C 16.632812 38.652344 16.5625 38.476562 16.488281 38.292969 C 16.472656 38.820312 16.453125 39.347656 16.4375 39.894531 C 16.171875 39.894531 15.910156 39.894531 15.636719 39.894531 C 15.636719 37.886719 15.636719 35.878906 15.636719 33.8125 Z M 16.4375 35.414062 C 16.4375 35.800781 16.4375 36.1875 16.4375 36.585938 C 16.546875 36.59375 16.660156 36.601562 16.773438 36.605469 C 16.835938 36.609375 16.898438 36.613281 16.960938 36.617188 C 17.125 36.613281 17.125 36.613281 17.230469 36.449219 C 17.304688 36.246094 17.304688 36.246094 17.277344 35.878906 C 17.257812 35.703125 17.257812 35.703125 17.234375 35.519531 C 17.082031 35.367188 16.945312 35.402344 16.773438 35.40625 C 16.679688 35.40625 16.679688 35.40625 16.582031 35.410156 C 16.511719 35.410156 16.511719 35.410156 16.4375 35.414062 Z M 16.4375 35.414062 "/>
<path style=" stroke:none;fill-rule:nonzero;fill:rgb(100%,88.627452%,25.098041%);fill-opacity:1;" d="M 7.074219 33.8125 C 7.441406 33.800781 7.441406 33.800781 7.816406 33.785156 C 7.929688 33.78125 7.929688 33.78125 8.046875 33.773438 C 8.59375 33.765625 8.980469 33.957031 9.386719 34.703125 C 9.734375 35.464844 9.753906 36.273438 9.746094 37.257812 C 9.722656 38.074219 9.582031 38.574219 9.308594 39.171875 C 9.003906 39.714844 8.664062 39.90625 8.265625 39.902344 C 8.171875 39.902344 8.171875 39.902344 8.074219 39.902344 C 7.957031 39.902344 7.957031 39.902344 7.835938 39.898438 C 7.585938 39.898438 7.332031 39.894531 7.074219 39.894531 C 7.074219 37.886719 7.074219 35.878906 7.074219 33.8125 Z M 7.925781 35.414062 C 7.925781 36.363281 7.925781 37.3125 7.925781 38.292969 C 8.34375 38.292969 8.496094 38.28125 8.796875 37.753906 C 8.921875 37.296875 8.917969 36.886719 8.882812 36.375 C 8.796875 35.972656 8.695312 35.75 8.511719 35.519531 C 8.3125 35.367188 8.3125 35.367188 7.925781 35.414062 Z M 7.925781 35.414062 "/>
<path style=" stroke:none;fill-rule:nonzero;fill:rgb(100%,88.627452%,25.098041%);fill-opacity:1;" d="M 21.117188 34.132812 C 21.476562 34.664062 21.664062 35.289062 21.753906 36.160156 C 21.8125 37.171875 21.757812 38.128906 21.453125 38.96875 C 21.164062 39.597656 20.847656 39.933594 20.425781 40.039062 C 19.933594 40.082031 19.542969 39.796875 19.179688 39.128906 C 18.875 38.414062 18.757812 37.558594 18.765625 36.636719 C 18.804688 35.691406 18.992188 34.917969 19.347656 34.289062 C 19.871094 33.496094 20.554688 33.464844 21.117188 34.132812 Z M 19.734375 35.945312 C 19.597656 36.464844 19.601562 36.988281 19.679688 37.546875 C 19.777344 37.867188 19.882812 38.125 20.054688 38.292969 C 20.214844 38.339844 20.371094 38.34375 20.53125 38.292969 C 20.738281 37.976562 20.882812 37.628906 20.921875 37.109375 C 20.925781 36.488281 20.875 36.128906 20.691406 35.625 C 20.535156 35.371094 20.359375 35.363281 20.160156 35.371094 C 19.964844 35.445312 19.863281 35.660156 19.734375 35.945312 Z M 19.734375 35.945312 "/>
<path style=" stroke:none;fill-rule:nonzero;fill:rgb(100%,88.627452%,25.098041%);fill-opacity:1;" d="M 28.207031 34.367188 C 28.617188 35.222656 28.695312 36.089844 28.683594 37.242188 C 28.65625 38.085938 28.496094 38.773438 28.191406 39.359375 C 27.738281 39.957031 27.324219 40.144531 26.785156 39.953125 C 26.429688 39.753906 26.136719 39.335938 25.9375 38.707031 C 25.699219 37.773438 25.660156 36.660156 25.78125 35.640625 C 25.832031 35.402344 25.886719 35.199219 25.957031 34.988281 C 25.980469 34.917969 26.003906 34.847656 26.027344 34.777344 C 26.574219 33.351562 27.515625 33.449219 28.207031 34.367188 Z M 26.703125 35.839844 C 26.566406 36.292969 26.523438 36.671875 26.574219 37.191406 C 26.632812 37.605469 26.699219 37.894531 26.863281 38.1875 C 27.085938 38.390625 27.191406 38.421875 27.429688 38.292969 C 27.640625 38.039062 27.71875 37.890625 27.820312 37.441406 C 27.859375 36.859375 27.855469 36.414062 27.722656 35.886719 C 27.605469 35.621094 27.515625 35.433594 27.335938 35.378906 C 27.058594 35.367188 26.890625 35.390625 26.703125 35.839844 Z M 26.703125 35.839844 "/>
<path style=" stroke:none;fill-rule:nonzero;fill:rgb(100%,88.627452%,25.098041%);fill-opacity:1;" d="M 39.675781 34.21875 C 39.925781 34.738281 39.96875 35.257812 40 35.945312 C 39.863281 35.960938 39.722656 35.972656 39.585938 35.980469 C 39.546875 35.984375 39.507812 35.988281 39.464844 35.992188 C 39.351562 36 39.351562 36 39.148438 35.945312 C 39.046875 35.683594 39.046875 35.683594 38.988281 35.414062 C 38.84375 35.265625 38.726562 35.285156 38.5625 35.308594 C 38.511719 35.378906 38.457031 35.449219 38.402344 35.519531 C 38.421875 35.625 38.4375 35.730469 38.457031 35.839844 C 38.589844 35.9375 38.589844 35.9375 38.746094 36 C 38.804688 36.027344 38.863281 36.054688 38.921875 36.082031 C 38.980469 36.105469 39.035156 36.132812 39.097656 36.160156 C 39.433594 36.320312 39.671875 36.441406 39.894531 37.011719 C 40.046875 37.519531 40.03125 38.039062 40 38.613281 C 39.910156 39.183594 39.730469 39.511719 39.46875 39.785156 C 39.023438 40.152344 38.476562 40.136719 38.027344 39.785156 C 37.785156 39.539062 37.640625 39.269531 37.507812 38.78125 C 37.449219 38.410156 37.441406 38.144531 37.445312 37.761719 C 37.585938 37.746094 37.722656 37.734375 37.863281 37.726562 C 37.902344 37.722656 37.941406 37.71875 37.980469 37.714844 C 38.097656 37.707031 38.097656 37.707031 38.296875 37.761719 C 38.398438 38.023438 38.398438 38.023438 38.457031 38.292969 C 38.617188 38.453125 38.757812 38.417969 38.9375 38.398438 C 38.988281 38.328125 39.042969 38.257812 39.097656 38.1875 C 39.097656 38.082031 39.097656 37.976562 39.097656 37.867188 C 38.816406 37.613281 38.527344 37.539062 38.226562 37.4375 C 37.933594 37.28125 37.714844 37.003906 37.554688 36.480469 C 37.457031 35.894531 37.457031 35.316406 37.578125 34.746094 C 37.722656 34.226562 37.960938 33.929688 38.238281 33.746094 C 38.746094 33.5625 39.238281 33.667969 39.675781 34.21875 Z M 39.675781 34.21875 "/>
<path style=" stroke:none;fill-rule:nonzero;fill:rgb(100%,88.627452%,25.098041%);fill-opacity:1;" d="M 10.480469 33.8125 C 10.757812 33.8125 11.039062 33.8125 11.328125 33.8125 C 11.332031 34.078125 11.332031 34.339844 11.335938 34.609375 C 11.339844 34.867188 11.339844 35.125 11.34375 35.378906 C 11.34375 35.554688 11.347656 35.734375 11.347656 35.910156 C 11.351562 36.167969 11.351562 36.421875 11.355469 36.679688 C 11.355469 36.757812 11.355469 36.835938 11.355469 36.917969 C 11.363281 37.4375 11.410156 37.8125 11.597656 38.1875 C 11.875 38.246094 11.875 38.246094 12.125 38.046875 C 12.257812 37.625 12.246094 37.179688 12.25 36.699219 C 12.253906 36.617188 12.253906 36.535156 12.253906 36.449219 C 12.257812 36.1875 12.261719 35.921875 12.265625 35.660156 C 12.265625 35.480469 12.269531 35.304688 12.269531 35.125 C 12.277344 34.6875 12.28125 34.25 12.289062 33.8125 C 12.566406 33.8125 12.847656 33.8125 13.136719 33.8125 C 13.140625 34.34375 13.144531 34.875 13.144531 35.40625 C 13.144531 35.585938 13.144531 35.769531 13.144531 35.949219 C 13.148438 36.207031 13.148438 36.46875 13.148438 36.730469 C 13.148438 36.808594 13.148438 36.890625 13.148438 36.972656 C 13.152344 37.777344 13.085938 38.617188 12.820312 39.253906 C 12.394531 39.953125 12.035156 40.09375 11.488281 40 C 11.167969 39.851562 10.902344 39.597656 10.707031 39.050781 C 10.398438 38.046875 10.460938 36.851562 10.46875 35.71875 C 10.46875 35.535156 10.46875 35.347656 10.472656 35.164062 C 10.472656 34.714844 10.476562 34.265625 10.480469 33.8125 Z M 10.480469 33.8125 "/>
<path style=" stroke:none;fill-rule:nonzero;fill:rgb(100%,88.627452%,25.098041%);fill-opacity:1;" d="M 3.5625 33.8125 C 3.84375 33.8125 4.125 33.8125 4.414062 33.8125 C 4.417969 34.085938 4.421875 34.359375 4.421875 34.636719 C 4.425781 34.902344 4.429688 35.167969 4.433594 35.429688 C 4.433594 35.613281 4.4375 35.796875 4.4375 35.980469 C 4.441406 36.246094 4.441406 36.507812 4.445312 36.773438 C 4.445312 36.851562 4.449219 36.933594 4.449219 37.019531 C 4.453125 37.582031 4.453125 37.582031 4.574219 38.078125 C 4.738281 38.246094 4.871094 38.21875 5.054688 38.1875 C 5.179688 38.035156 5.179688 38.035156 5.265625 37.761719 C 5.289062 37.445312 5.296875 37.167969 5.296875 36.855469 C 5.300781 36.769531 5.300781 36.679688 5.300781 36.589844 C 5.304688 36.3125 5.304688 36.039062 5.304688 35.761719 C 5.308594 35.570312 5.308594 35.382812 5.3125 35.195312 C 5.316406 34.734375 5.316406 34.273438 5.320312 33.8125 C 5.601562 33.8125 5.878906 33.8125 6.171875 33.8125 C 6.175781 34.421875 6.179688 35.027344 6.183594 35.636719 C 6.183594 35.839844 6.183594 36.046875 6.1875 36.253906 C 6.1875 36.550781 6.191406 36.847656 6.191406 37.148438 C 6.191406 37.238281 6.191406 37.328125 6.195312 37.421875 C 6.195312 38.199219 6.082031 38.730469 5.839844 39.332031 C 5.496094 39.886719 5.175781 40.074219 4.734375 40.039062 C 4.339844 39.941406 4.042969 39.671875 3.789062 39.058594 C 3.589844 38.363281 3.539062 37.765625 3.546875 36.980469 C 3.546875 36.890625 3.546875 36.796875 3.550781 36.703125 C 3.550781 36.414062 3.550781 36.128906 3.554688 35.839844 C 3.554688 35.644531 3.554688 35.445312 3.554688 35.25 C 3.558594 34.769531 3.558594 34.292969 3.5625 33.8125 Z M 3.5625 33.8125 "/>
<path style=" stroke:none;fill-rule:nonzero;fill:rgb(100%,88.627452%,25.098041%);fill-opacity:1;" d="M 36.394531 34.347656 C 36.625 34.757812 36.75 35.382812 36.863281 35.945312 C 36.863281 36.050781 36.863281 36.15625 36.863281 36.265625 C 36.722656 36.277344 36.585938 36.285156 36.445312 36.292969 C 36.40625 36.296875 36.367188 36.300781 36.328125 36.304688 C 36.035156 36.316406 36.035156 36.316406 35.902344 36.066406 C 35.851562 35.839844 35.851562 35.839844 35.851562 35.625 C 35.636719 35.480469 35.4375 35.460938 35.210938 35.519531 C 35.046875 35.710938 34.972656 35.863281 34.878906 36.191406 C 34.8125 36.695312 34.8125 37.085938 34.90625 37.574219 C 35.003906 37.875 35.050781 38.03125 35.210938 38.1875 C 35.464844 38.242188 35.578125 38.265625 35.792969 37.992188 C 35.910156 37.757812 35.910156 37.757812 36.011719 37.441406 C 36.160156 37.417969 36.296875 37.410156 36.441406 37.421875 C 36.503906 37.421875 36.503906 37.421875 36.5625 37.425781 C 36.664062 37.429688 36.761719 37.433594 36.863281 37.441406 C 36.789062 38.25 36.640625 38.917969 36.316406 39.453125 C 35.917969 40 35.585938 40.082031 35.105469 40 C 34.679688 39.796875 34.367188 39.355469 34.132812 38.609375 C 33.921875 37.796875 33.871094 36.898438 33.964844 36 C 34.105469 35.089844 34.363281 34.394531 34.777344 33.914062 C 35.351562 33.402344 35.886719 33.710938 36.394531 34.347656 Z M 36.394531 34.347656 "/>
<path style=" stroke:none;fill-rule:nonzero;fill:rgb(100%,88.627452%,25.098041%);fill-opacity:1;" d="M 0 33.8125 C 0.316406 33.8125 0.632812 33.8125 0.957031 33.8125 C 1.039062 34.128906 1.117188 34.445312 1.195312 34.761719 C 1.21875 34.851562 1.242188 34.941406 1.265625 35.03125 C 1.296875 35.160156 1.296875 35.160156 1.332031 35.292969 C 1.351562 35.371094 1.371094 35.449219 1.390625 35.53125 C 1.4375 35.734375 1.4375 35.734375 1.4375 35.945312 C 1.472656 35.945312 1.507812 35.945312 1.542969 35.945312 C 1.554688 35.855469 1.570312 35.769531 1.582031 35.675781 C 1.65625 35.269531 1.746094 34.902344 1.839844 34.519531 C 1.902344 34.285156 1.960938 34.054688 2.019531 33.8125 C 2.335938 33.8125 2.652344 33.8125 2.980469 33.8125 C 2.902344 34.277344 2.824219 34.664062 2.71875 35.097656 C 2.6875 35.214844 2.660156 35.335938 2.628906 35.457031 C 2.597656 35.582031 2.566406 35.707031 2.535156 35.832031 C 2.503906 35.957031 2.472656 36.078125 2.441406 36.207031 C 2.1875 37.207031 2.1875 37.207031 2.054688 37.625 C 1.941406 38.082031 1.933594 38.472656 1.929688 38.980469 C 1.925781 39.113281 1.925781 39.113281 1.921875 39.246094 C 1.917969 39.460938 1.917969 39.679688 1.914062 39.894531 C 1.632812 39.894531 1.351562 39.894531 1.0625 39.894531 C 1.070312 39.621094 1.078125 39.347656 1.085938 39.066406 C 1.082031 37.621094 0.65625 36.40625 0.304688 35.195312 C 0 34.144531 0 34.144531 0 33.8125 Z M 0 33.8125 "/>
<path style=" stroke:none;fill-rule:nonzero;fill:rgb(100%,88.627452%,25.098041%);fill-opacity:1;" d="M 29.203125 33.8125 C 30.007812 33.8125 30.816406 33.8125 31.648438 33.8125 C 31.648438 34.339844 31.648438 34.871094 31.648438 35.414062 C 31.386719 35.414062 31.121094 35.414062 30.851562 35.414062 C 30.851562 36.890625 30.851562 38.371094 30.851562 39.894531 C 30.570312 39.894531 30.289062 39.894531 30 39.894531 C 30 38.414062 30 36.9375 30 35.414062 C 29.738281 35.414062 29.472656 35.414062 29.203125 35.414062 C 29.203125 34.886719 29.203125 34.355469 29.203125 33.8125 Z M 29.203125 33.8125 "/>
<path style=" stroke:none;fill-rule:nonzero;fill:rgb(100%,88.627452%,25.098041%);fill-opacity:1;" d="M 32.339844 33.8125 C 32.605469 33.8125 32.867188 33.8125 33.136719 33.8125 C 33.136719 35.820312 33.136719 37.824219 33.136719 39.894531 C 32.875 39.894531 32.613281 39.894531 32.339844 39.894531 C 32.339844 37.886719 32.339844 35.878906 32.339844 33.8125 Z M 32.339844 33.8125 "/>
</g>
</svg>
